<?xml version="1.0" standalone="no"?><!DOCTYPE svg PUBLIC "-//W3C//DTD SVG 1.1//EN" "http://www.w3.org/Graphics/SVG/1.1/DTD/svg11.dtd"><svg t="1505455119777" class="icon" style="" viewBox="0 0 1024 1024" version="1.1" xmlns="http://www.w3.org/2000/svg" p-id="4285" xmlns:xlink="http://www.w3.org/1999/xlink" width="64" height="64"><defs><style type="text/css"></style></defs><path d="M512.902998 53.818695c-252.839506 0-458.000705 205.883598-458.000705 458.361905S260.424691 970.181305 512.902998 970.181305c90.661023 0 178.793651-26.728748 253.923104-76.93545 11.919577-7.585185 15.17037-23.477954 7.223986-35.397531-7.585185-11.919577-23.477954-15.17037-35.397531-7.223986-66.821869 44.788713-144.840917 68.266667-225.749559 68.266667-224.665961 0-406.710406-182.766843-406.710406-407.071605S288.598236 105.108995 512.902998 105.108995s406.710406 182.405644 406.710406 406.710406c0 95.717813-33.591534 188.546032-94.995414 261.508289-9.029982 10.835979-7.585185 27.089947 3.250794 36.119929s27.089947 7.585185 36.119929-3.250794c68.989065-82.353439 106.914991-186.740035 106.914991-294.377425C970.903704 259.341093 765.742504 53.818695 512.902998 53.818695z" p-id="4286" fill="#515151"></path><path d="M600.313228 525.183774c51.2903-25.283951 121.362963-59.597884 108.359788-177.348854-9.391182-85.965432-86.687831-136.894533-202.632804-135.088536C423.686772 214.552381 350.363316 263.675485 319.300176 337.360141c-5.417989 13.003175 0.722399 28.173545 13.725573 33.591534 13.003175 5.417989 28.173545-0.722399 33.591534-13.725573 23.116755-55.263492 78.380247-91.744621 140.867725-93.189418 41.899118-0.722399 141.228924 6.140388 150.258907 89.577425 9.029982 81.99224-30.340741 101.497002-79.825044 125.697354-43.343915 21.310758-96.801411 47.317108-96.801411 122.80776l0 108.359788c0 14.086772 11.558377 25.64515 25.64515 25.64515 14.447972 0 25.64515-11.558377 25.64515-26.006349l0-108.359788C532.40776 560.581305 555.524515 547.216931 600.313228 525.183774z" p-id="4287" fill="#515151"></path><path d="M510.735802 811.614815m-28.534744 0a7.9 7.9 0 1 0 57.069489 0 7.9 7.9 0 1 0-57.069489 0Z" p-id="4288" fill="#515151"></path></svg>