<?xml version="1.0" standalone="no"?><!DOCTYPE svg PUBLIC "-//W3C//DTD SVG 1.1//EN" "http://www.w3.org/Graphics/SVG/1.1/DTD/svg11.dtd"><svg t="1505455192276" class="icon" style="" viewBox="0 0 1024 1024" version="1.1" xmlns="http://www.w3.org/2000/svg" p-id="5033" xmlns:xlink="http://www.w3.org/1999/xlink" width="64" height="64"><defs><style type="text/css"></style></defs><path d="M358.4 102.4 358.4 358.4 102.4 358.4 102.4 102.4 358.4 102.4M460.8 0 0 0l0 460.8 460.8 0L460.8 0 460.8 0z" p-id="5034" fill="#515151"></path><path d="M358.4 716.8l0 204.8L102.4 921.6l0-204.8L358.4 716.8M460.8 614.4 0 614.4l0 409.6 460.8 0L460.8 614.4 460.8 614.4z" p-id="5035" fill="#515151"></path><path d="M1024 1024l-358.4 0 0-102.4 256 0 0-256 102.4 0L1024 1024z" p-id="5036" fill="#515151"></path><path d="M921.6 102.4 921.6 358.4l-204.8 0L716.8 102.4 921.6 102.4M1024 0l-409.6 0 0 460.8 409.6 0L1024 0 1024 0z" p-id="5037" fill="#515151"></path><path d="M307.2 563.2 0 563.2l0-51.2 307.2 0L307.2 563.2z" p-id="5038" fill="#515151"></path><path d="M563.2 614.4l-51.2 0L512 0l51.2 0L563.2 614.4z" p-id="5039" fill="#515151"></path><path d="M1024 563.2l-204.8 0 0-51.2 204.8 0L1024 563.2z" p-id="5040" fill="#515151"></path><path d="M563.2 1024l-51.2 0 0-256 51.2 0L563.2 1024z" p-id="5041" fill="#515151"></path><path d="M870.4 819.2l-358.4 0 0-51.2 358.4 0L870.4 819.2z" p-id="5042" fill="#515151"></path><path d="M870.4 768l-256 0 0-256 256 0L870.4 768zM716.8 665.6512l51.2 0 0-51.2-51.2 0L716.8 665.6512z" p-id="5043" fill="#515151"></path></svg>